<svg width="40" height="40" viewBox="0 0 40 40" fill="none" xmlns="http://www.w3.org/2000/svg">
  <path d="M30 26C31.6569 26 33 24.6569 33 23C33 21.3431 31.6569 20 30 20C29.8477 20 29.6978 20.0102 29.5513 20.0297C28.8463 17.7184 26.7796 16 24.25 16C22.5406 16 21.0344 16.8906 20.1406 18.25C19.7031 18.0859 19.2281 18 18.75 18C16.6797 18 15 19.6797 15 21.75C15 21.8281 15.0031 21.9047 15.0094 21.9797C13.2859 22.4578 12 24.0453 12 26C12 28.2091 13.7909 30 16 30H30C31.6569 30 33 28.6569 33 27V26H30Z" fill="white"/>
  <circle cx="20" cy="15" r="3" fill="white"/>
  <path d="M16 12H24M18 8H22" stroke="white" stroke-width="2" stroke-linecap="round"/>
</svg>
